# Blender v2.79 (sub 6) OBJ File: 'stangen.blend'
# www.blender.org
mtllib querstrebe.mtl
o BezierCurve_BezierCurve.001
v 0.072811 0.052901 -0.500000
v 0.027811 0.085595 -0.500000
v -0.027812 0.085595 -0.500000
v -0.072812 0.052901 -0.500000
v -0.090000 -0.000000 -0.500000
v -0.072812 -0.052901 -0.500000
v -0.027812 -0.085595 -0.500000
v 0.027811 -0.085595 -0.500000
v 0.072811 -0.052901 -0.500000
v 0.090000 -0.000000 -0.500000
v 0.072811 0.052901 -0.426988
v 0.027811 0.085595 -0.426988
v -0.027812 0.085595 -0.426988
v -0.072812 0.052901 -0.426988
v -0.090000 -0.000000 -0.426988
v -0.072812 -0.052901 -0.426988
v -0.027812 -0.085595 -0.426988
v 0.027811 -0.085595 -0.426988
v 0.072811 -0.052901 -0.426988
v 0.090000 -0.000000 -0.426988
v 0.072811 0.052901 -0.356975
v 0.027811 0.085595 -0.356975
v -0.027812 0.085595 -0.356975
v -0.072812 0.052901 -0.356975
v -0.090000 -0.000000 -0.356975
v -0.072812 -0.052901 -0.356975
v -0.027812 -0.085595 -0.356975
v 0.027811 -0.085595 -0.356975
v 0.072811 -0.052901 -0.356975
v 0.090000 -0.000000 -0.356975
v 0.072811 0.052901 -0.288499
v 0.027811 0.085595 -0.288499
v -0.027812 0.085595 -0.288499
v -0.072812 0.052901 -0.288499
v -0.090000 -0.000000 -0.288499
v -0.072812 -0.052901 -0.288499
v -0.027812 -0.085595 -0.288499
v 0.027811 -0.085595 -0.288499
v 0.072811 -0.052901 -0.288499
v 0.090000 -0.000000 -0.288499
v 0.072811 0.052901 -0.220098
v 0.027811 0.085595 -0.220098
v -0.027812 0.085595 -0.220098
v -0.072812 0.052901 -0.220098
v -0.090000 -0.000000 -0.220098
v -0.072812 -0.052901 -0.220098
v -0.027812 -0.085595 -0.220098
v 0.027811 -0.085595 -0.220098
v 0.072811 -0.052901 -0.220098
v 0.090000 -0.000000 -0.220098
v 0.072811 0.052901 -0.150307
v 0.027811 0.085595 -0.150307
v -0.027812 0.085595 -0.150307
v -0.072812 0.052901 -0.150307
v -0.090000 -0.000000 -0.150307
v -0.072812 -0.052901 -0.150307
v -0.027812 -0.085595 -0.150307
v 0.027811 -0.085595 -0.150307
v 0.072811 -0.052901 -0.150307
v 0.090000 -0.000000 -0.150307
v 0.072811 0.052901 -0.077665
v 0.027811 0.085595 -0.077665
v -0.027812 0.085595 -0.077665
v -0.072812 0.052901 -0.077665
v -0.090000 -0.000000 -0.077665
v -0.072812 -0.052901 -0.077665
v -0.027812 -0.085595 -0.077665
v 0.027811 -0.085595 -0.077665
v 0.072811 -0.052901 -0.077665
v 0.090000 -0.000000 -0.077665
v 0.072811 0.052901 -0.000708
v 0.027811 0.085595 -0.000708
v -0.027812 0.085595 -0.000708
v -0.072812 0.052901 -0.000708
v -0.090000 -0.000000 -0.000708
v -0.072812 -0.052901 -0.000708
v -0.027812 -0.085595 -0.000708
v 0.027811 -0.085595 -0.000708
v 0.072811 -0.052901 -0.000708
v 0.090000 -0.000000 -0.000708
v 0.072811 0.052901 0.082027
v 0.027811 0.085595 0.082027
v -0.027812 0.085595 0.082027
v -0.072812 0.052901 0.082027
v -0.090000 -0.000000 0.082027
v -0.072812 -0.052901 0.082027
v -0.027812 -0.085595 0.082027
v 0.027811 -0.085595 0.082027
v 0.072811 -0.052901 0.082027
v 0.090000 -0.000000 0.082027
v 0.072811 0.052901 0.172002
v 0.027811 0.085595 0.172002
v -0.027812 0.085595 0.172002
v -0.072812 0.052901 0.172002
v -0.090000 -0.000000 0.172002
v -0.072812 -0.052901 0.172002
v -0.027812 -0.085595 0.172002
v 0.027811 -0.085595 0.172002
v 0.072811 -0.052901 0.172002
v 0.090000 -0.000000 0.172002
v 0.072811 0.052901 0.270681
v 0.027811 0.085595 0.270681
v -0.027812 0.085595 0.270681
v -0.072812 0.052901 0.270681
v -0.090000 -0.000000 0.270681
v -0.072812 -0.052901 0.270681
v -0.027812 -0.085595 0.270681
v 0.027811 -0.085595 0.270681
v 0.072811 -0.052901 0.270681
v 0.090000 -0.000000 0.270681
v 0.072811 0.052901 0.379526
v 0.027811 0.085595 0.379526
v -0.027812 0.085595 0.379526
v -0.072812 0.052901 0.379526
v -0.090000 -0.000000 0.379526
v -0.072812 -0.052901 0.379526
v -0.027812 -0.085595 0.379526
v 0.027811 -0.085595 0.379526
v 0.072811 -0.052901 0.379526
v 0.090000 -0.000000 0.379526
v 0.072811 0.052901 0.500000
v 0.027811 0.085595 0.500000
v -0.027812 0.085595 0.500000
v -0.072812 0.052901 0.500000
v -0.090000 -0.000000 0.500000
v -0.072812 -0.052901 0.500000
v -0.027812 -0.085595 0.500000
v 0.027811 -0.085595 0.500000
v 0.072811 -0.052901 0.500000
v 0.090000 -0.000000 0.500000
vn 0.8090 0.5878 0.0000
vn 1.0000 0.0000 0.0000
vn 0.3090 0.9510 0.0000
vn -0.3090 0.9510 0.0000
vn -0.8090 0.5878 0.0000
vn -1.0000 0.0000 0.0000
vn -0.8090 -0.5878 0.0000
vn -0.3090 -0.9510 0.0000
vn 0.3090 -0.9510 0.0000
vn 0.8090 -0.5878 0.0000
usemtl None
s 1
f 1//1 11//1 20//2 10//2
f 2//3 12//3 11//1 1//1
f 3//4 13//4 12//3 2//3
f 4//5 14//5 13//4 3//4
f 5//6 15//6 14//5 4//5
f 6//7 16//7 15//6 5//6
f 7//8 17//8 16//7 6//7
f 8//9 18//9 17//8 7//8
f 9//10 19//10 18//9 8//9
f 10//2 20//2 19//10 9//10
f 11//1 21//1 30//2 20//2
f 12//3 22//3 21//1 11//1
f 13//4 23//4 22//3 12//3
f 14//5 24//5 23//4 13//4
f 15//6 25//6 24//5 14//5
f 16//7 26//7 25//6 15//6
f 17//8 27//8 26//7 16//7
f 18//9 28//9 27//8 17//8
f 19//10 29//10 28//9 18//9
f 20//2 30//2 29//10 19//10
f 21//1 31//1 40//2 30//2
f 22//3 32//3 31//1 21//1
f 23//4 33//4 32//3 22//3
f 24//5 34//5 33//4 23//4
f 25//6 35//6 34//5 24//5
f 26//7 36//7 35//6 25//6
f 27//8 37//8 36//7 26//7
f 28//9 38//9 37//8 27//8
f 29//10 39//10 38//9 28//9
f 30//2 40//2 39//10 29//10
f 31//1 41//1 50//2 40//2
f 32//3 42//3 41//1 31//1
f 33//4 43//4 42//3 32//3
f 34//5 44//5 43//4 33//4
f 35//6 45//6 44//5 34//5
f 36//7 46//7 45//6 35//6
f 37//8 47//8 46//7 36//7
f 38//9 48//9 47//8 37//8
f 39//10 49//10 48//9 38//9
f 40//2 50//2 49//10 39//10
f 41//1 51//1 60//2 50//2
f 42//3 52//3 51//1 41//1
f 43//4 53//4 52//3 42//3
f 44//5 54//5 53//4 43//4
f 45//6 55//6 54//5 44//5
f 46//7 56//7 55//6 45//6
f 47//8 57//8 56//7 46//7
f 48//9 58//9 57//8 47//8
f 49//10 59//10 58//9 48//9
f 50//2 60//2 59//10 49//10
f 51//1 61//1 70//2 60//2
f 52//3 62//3 61//1 51//1
f 53//4 63//4 62//3 52//3
f 54//5 64//5 63//4 53//4
f 55//6 65//6 64//5 54//5
f 56//7 66//7 65//6 55//6
f 57//8 67//8 66//7 56//7
f 58//9 68//9 67//8 57//8
f 59//10 69//10 68//9 58//9
f 60//2 70//2 69//10 59//10
f 61//1 71//1 80//2 70//2
f 62//3 72//3 71//1 61//1
f 63//4 73//4 72//3 62//3
f 64//5 74//5 73//4 63//4
f 65//6 75//6 74//5 64//5
f 66//7 76//7 75//6 65//6
f 67//8 77//8 76//7 66//7
f 68//9 78//9 77//8 67//8
f 69//10 79//10 78//9 68//9
f 70//2 80//2 79//10 69//10
f 71//1 81//1 90//2 80//2
f 72//3 82//3 81//1 71//1
f 73//4 83//4 82//3 72//3
f 74//5 84//5 83//4 73//4
f 75//6 85//6 84//5 74//5
f 76//7 86//7 85//6 75//6
f 77//8 87//8 86//7 76//7
f 78//9 88//9 87//8 77//8
f 79//10 89//10 88//9 78//9
f 80//2 90//2 89//10 79//10
f 81//1 91//1 100//2 90//2
f 82//3 92//3 91//1 81//1
f 83//4 93//4 92//3 82//3
f 84//5 94//5 93//4 83//4
f 85//6 95//6 94//5 84//5
f 86//7 96//7 95//6 85//6
f 87//8 97//8 96//7 86//7
f 88//9 98//9 97//8 87//8
f 89//10 99//10 98//9 88//9
f 90//2 100//2 99//10 89//10
f 91//1 101//1 110//2 100//2
f 92//3 102//3 101//1 91//1
f 93//4 103//4 102//3 92//3
f 94//5 104//5 103//4 93//4
f 95//6 105//6 104//5 94//5
f 96//7 106//7 105//6 95//6
f 97//8 107//8 106//7 96//7
f 98//9 108//9 107//8 97//8
f 99//10 109//10 108//9 98//9
f 100//2 110//2 109//10 99//10
f 101//1 111//1 120//2 110//2
f 102//3 112//3 111//1 101//1
f 103//4 113//4 112//3 102//3
f 104//5 114//5 113//4 103//4
f 105//6 115//6 114//5 104//5
f 106//7 116//7 115//6 105//6
f 107//8 117//8 116//7 106//7
f 108//9 118//9 117//8 107//8
f 109//10 119//10 118//9 108//9
f 110//2 120//2 119//10 109//10
f 111//1 121//1 130//2 120//2
f 112//3 122//3 121//1 111//1
f 113//4 123//4 122//3 112//3
f 114//5 124//5 123//4 113//4
f 115//6 125//6 124//5 114//5
f 116//7 126//7 125//6 115//6
f 117//8 127//8 126//7 116//7
f 118//9 128//9 127//8 117//8
f 119//10 129//10 128//9 118//9
f 120//2 130//2 129//10 119//10
