# Blender v2.80 (sub 18) OBJ File: 'cube_test_bogen.blend'
# www.blender.org
mtllib cube_test_bogen.mtl
o Cube
v 1.000000 0.000000 -1.000000
v 1.000000 0.000000 -1.000000
v 1.000000 0.483747 -1.000000
v 1.000000 0.000000 1.000000
v 1.000000 0.000000 1.000000
v 1.000000 0.483747 1.000000
v -1.000000 0.000000 1.000000
v -1.000000 0.000000 1.000000
v -1.000000 0.483747 1.000000
v -1.000000 0.000000 -1.000000
v -1.000000 0.000000 -1.000000
v -1.000000 0.483747 -1.000000
v 0.516254 1.000000 -1.000000
v 1.000000 1.000000 -0.513588
v 1.000000 0.516253 -1.000000
v 1.000000 1.000000 0.513590
v 0.516253 1.000000 1.000000
v 1.000000 0.516253 1.000000
v -0.516254 1.000000 1.000000
v -1.000000 1.000000 0.513589
v -1.000000 0.516253 1.000000
v -1.000000 1.000000 -0.513589
v -0.516253 1.000000 -1.000000
v -1.000000 0.516253 -1.000000
v 0.516254 1.207912 -1.021852
v 1.000000 1.309042 -0.546070
v 1.000000 1.522605 0.458662
v 0.516253 1.623735 0.934443
v -0.516254 1.623735 0.934443
v -1.000000 1.522604 0.458661
v -1.000000 1.309042 -0.546071
v -0.516253 1.207912 -1.021852
v 0.516254 1.406737 -1.086454
v 1.000000 1.604578 -0.642095
v 1.000000 2.022369 0.296278
v 0.516253 2.220210 0.740637
v -0.516254 2.220210 0.740636
v -1.000000 2.022369 0.296278
v -1.000000 1.604578 -0.642096
v -0.516253 1.406737 -1.086454
v 0.516254 1.587786 -1.190982
v 1.000000 1.873691 -0.797467
v 1.000000 2.477451 0.033537
v 0.516253 2.763356 0.427052
v -0.516254 2.763356 0.427051
v -1.000000 2.477450 0.033536
v -1.000000 1.873690 -0.797468
v -0.516253 1.587785 -1.190983
v 0.516254 1.743145 -1.330869
v 1.000000 2.104619 -1.005396
v 1.000000 2.867961 -0.318080
v 0.516253 3.229435 0.007392
v -0.516254 3.229434 0.007392
v -1.000000 2.867960 -0.318081
v -1.000000 2.104619 -1.005397
v -0.516253 1.743145 -1.330869
v 0.516254 1.866026 -1.500000
v 1.000000 2.287271 -1.256794
v 1.000000 3.176833 -0.743205
v 0.516253 3.598077 -0.499999
v -0.516254 3.598077 -0.500000
v -1.000000 3.176832 -0.743205
v -1.000000 2.287270 -1.256794
v -0.516253 1.866026 -1.500000
v 0.516254 1.951057 -1.690983
v 1.000000 2.413662 -1.540673
v 1.000000 3.390566 -1.223258
v 0.516253 3.853170 -1.072949
v -0.516254 3.853170 -1.072949
v -1.000000 3.390565 -1.223258
v -1.000000 2.413661 -1.540673
v -0.516253 1.951057 -1.690983
v 0.516254 1.994523 -1.895471
v 1.000000 2.478269 -1.844627
v 1.000000 3.499820 -1.737258
v 0.516253 3.983567 -1.686414
v -0.516254 3.983566 -1.686414
v -1.000000 3.499820 -1.737258
v -1.000000 2.478269 -1.844628
v -0.516253 1.994522 -1.895471
v 0.516254 1.994523 -2.104528
v 1.000000 2.478269 -2.155372
v 1.000000 3.499820 -2.262742
v 0.516253 3.983567 -2.313585
v -0.516254 3.983566 -2.313586
v -1.000000 3.499820 -2.262742
v -1.000000 2.478269 -2.155372
v -0.516253 1.994522 -2.104528
v 0.516254 1.951057 -2.309017
v 1.000000 2.413662 -2.459326
v 1.000000 3.390566 -2.776742
v 0.516253 3.853170 -2.927051
v -0.516254 3.853170 -2.927051
v -1.000000 3.390565 -2.776742
v -1.000000 2.413661 -2.459326
v -0.516253 1.951057 -2.309017
v 0.516254 1.866026 -2.500000
v 1.000000 2.287271 -2.743206
v 1.000000 3.176833 -3.256795
v 0.516253 3.598077 -3.500000
v -0.516254 3.598077 -3.500000
v -1.000000 3.176832 -3.256794
v -1.000000 2.287270 -2.743205
v -0.516253 1.866026 -2.500000
v 0.516254 1.743146 -2.669131
v 1.000000 2.104620 -2.994604
v 1.000000 2.867961 -3.681920
v 0.516253 3.229435 -4.007392
v -0.516254 3.229435 -4.007392
v -1.000000 2.867961 -3.681920
v -1.000000 2.104619 -2.994603
v -0.516253 1.743145 -2.669131
v 0.516254 1.587786 -2.809017
v 1.000000 1.873691 -3.202532
v 1.000000 2.477451 -4.033536
v 0.516253 2.763356 -4.427052
v -0.516254 2.763356 -4.427052
v -1.000000 2.477451 -4.033536
v -1.000000 1.873691 -3.202532
v -0.516253 1.587786 -2.809017
v 0.516254 1.406737 -2.913546
v 1.000000 1.604578 -3.357905
v 1.000000 2.022369 -4.296278
v 0.516253 2.220211 -4.740637
v -0.516254 2.220210 -4.740637
v -1.000000 2.022369 -4.296278
v -1.000000 1.604578 -3.357904
v -0.516253 1.406737 -2.913546
v 0.516254 1.207912 -2.978148
v 1.000000 1.309043 -3.453930
v 1.000000 1.522605 -4.458662
v 0.516253 1.623735 -4.934443
v -0.516254 1.623735 -4.934443
v -1.000000 1.522605 -4.458661
v -1.000000 1.309043 -3.453930
v -0.516253 1.207912 -2.978148
v 1.000000 1.000000 -3.486412
v 0.516254 1.000000 -3.000001
v 1.000000 0.516254 -3.000001
v 0.516253 1.000000 -5.000001
v 1.000000 1.000000 -4.513589
v 0.999999 0.516254 -5.000001
v -1.000000 1.000000 -4.513589
v -0.516254 1.000000 -5.000000
v -1.000000 0.516253 -5.000000
v -0.516253 1.000000 -3.000000
v -1.000000 1.000000 -3.486412
v -1.000000 0.516254 -3.000000
v 1.000000 0.000000 -3.000000
v 1.000000 0.000000 -3.000000
v 1.000000 0.483747 -3.000000
v 0.999999 0.000000 -5.000001
v 0.999999 0.000000 -5.000001
v 0.999999 0.483747 -5.000001
v -1.000000 0.000000 -3.000000
v -1.000000 0.000000 -3.000000
v -1.000000 0.483747 -3.000000
v -1.000000 0.000000 -5.000000
v -1.000000 0.000000 -5.000000
v -1.000000 0.483747 -5.000000
v 1.000000 0.000000 -1.000000
v 0.471701 0.000000 -1.000000
v 1.000000 0.000000 1.000000
v 0.471701 0.000000 1.000000
v -1.000000 0.000000 -1.000000
v -1.000000 0.000000 -1.000000
v -1.000000 0.000000 1.000000
v -1.000000 0.000000 1.000000
v 1.000000 0.000000 -3.000000
v 1.000000 0.000000 -3.000000
v 0.999999 0.000000 -5.000001
v 0.999999 0.000000 -5.000001
v -1.000000 0.000000 -3.000000
v -1.000000 0.000000 -3.000000
v -1.000000 0.000000 -5.000000
v -1.000000 0.000000 -5.000000
vn 0.0000 0.0000 -1.0000
vn 1.0000 0.0000 0.0000
vn 0.0000 -1.0000 0.0000
vn 0.0000 0.0000 1.0000
vn -1.0000 -0.0000 -0.0000
vn -0.0000 0.1045 0.9945
vn 0.0000 -0.1045 -0.9945
vn 0.0000 -0.3090 -0.9511
vn -0.0000 0.3090 0.9511
vn 0.0000 -0.5000 -0.8660
vn -0.0000 0.5000 0.8660
vn -0.0000 0.6691 0.7431
vn 0.0000 -0.6691 -0.7431
vn 0.0000 -0.9135 -0.4067
vn 0.0000 -0.8090 -0.5878
vn -0.0000 0.8090 0.5878
vn -0.0000 0.9135 0.4067
vn -0.0000 0.9781 0.2079
vn 0.0000 -0.9781 -0.2079
vn -0.0000 1.0000 0.0000
vn -0.0000 0.9135 -0.4067
vn -0.0000 0.9781 -0.2079
vn 0.0000 -0.9781 0.2079
vn 0.0000 -0.9135 0.4067
vn 0.0000 -0.8090 0.5878
vn -0.0000 0.8090 -0.5878
vn -0.0000 0.6691 -0.7431
vn 0.0000 -0.6691 0.7431
vn 0.0000 -0.5000 0.8660
vn -0.0000 0.5000 -0.8660
vn 0.0000 -0.3090 0.9511
vn -0.0000 0.3090 -0.9511
vn -0.0000 0.1045 -0.9945
vn 0.0000 -0.1045 0.9945
vn 0.5784 0.5784 -0.5752
vn 0.5784 0.5784 0.5752
vn -0.5784 0.5784 0.5752
vn -0.5784 0.5784 -0.5752
vn -0.7071 0.0739 0.7032
vn -0.7071 -0.0739 -0.7032
vn 0.7071 -0.0739 -0.7032
vn 0.7071 0.0739 0.7032
vn 0.7071 0.2185 0.6725
vn -0.7071 0.2185 0.6725
vn 0.7071 -0.2185 -0.6725
vn -0.7071 -0.2185 -0.6725
vn 0.7071 0.3536 0.6124
vn -0.7071 0.3536 0.6124
vn 0.7071 -0.3536 -0.6124
vn -0.7071 -0.3536 -0.6124
vn -0.7071 0.4731 0.5255
vn -0.7071 -0.4731 -0.5255
vn 0.7071 -0.4731 -0.5255
vn 0.7071 0.4731 0.5255
vn 0.7071 0.5721 0.4156
vn -0.7071 0.5721 0.4156
vn 0.7071 -0.5721 -0.4156
vn -0.7071 -0.5721 -0.4156
vn 0.7071 -0.6460 -0.2876
vn 0.7071 0.6460 0.2876
vn -0.7071 0.6460 0.2876
vn -0.7071 -0.6460 -0.2876
vn -0.7071 0.6917 0.1470
vn -0.7071 -0.6917 -0.1470
vn 0.7071 -0.6917 -0.1470
vn 0.7071 0.6917 0.1470
vn 0.7071 0.7071 0.0000
vn -0.7071 0.7071 0.0000
vn 0.7071 -0.7071 0.0000
vn -0.7071 -0.7071 0.0000
vn -0.7071 0.6917 -0.1470
vn -0.7071 -0.6917 0.1470
vn 0.7071 -0.6917 0.1470
vn 0.7071 0.6917 -0.1470
vn -0.7071 -0.6460 0.2876
vn 0.7071 -0.6460 0.2876
vn 0.7071 0.6460 -0.2876
vn -0.7071 0.6460 -0.2876
vn 0.7071 0.5721 -0.4156
vn -0.7071 0.5721 -0.4156
vn 0.7071 -0.5721 0.4156
vn -0.7071 -0.5721 0.4156
vn -0.7071 0.4731 -0.5255
vn -0.7071 -0.4731 0.5255
vn 0.7071 -0.4731 0.5255
vn 0.7071 0.4731 -0.5255
vn 0.7071 0.3536 -0.6124
vn -0.7071 0.3536 -0.6124
vn 0.7071 -0.3536 0.6124
vn -0.7071 -0.3536 0.6124
vn 0.7071 0.2185 -0.6725
vn -0.7071 0.2185 -0.6725
vn 0.7071 -0.2185 0.6725
vn -0.7071 -0.2185 0.6725
vn -0.7071 0.0739 -0.7032
vn -0.7071 -0.0739 0.7032
vn 0.7071 -0.0739 0.7032
vn 0.7071 0.0739 -0.7032
usemtl Material
s off
f 13//1 15//1 3//1 2//1 10//1 12//1 24//1 23//1
f 27//2 26//2 34//2 35//2
f 10//3 2//3 162//3 166//3
f 7//4 11//4 165//4 168//4
f 16//2 14//2 26//2 27//2
f 4//3 8//3 167//3 164//3
f 31//5 30//5 38//5 39//5
f 19//6 17//6 28//6 29//6
f 22//5 20//5 30//5 31//5
f 13//7 23//7 32//7 25//7
f 39//5 38//5 46//5 47//5
f 25//8 32//8 40//8 33//8
f 35//2 34//2 42//2 43//2
f 29//9 28//9 36//9 37//9
f 51//2 50//2 58//2 59//2
f 33//10 40//10 48//10 41//10
f 43//2 42//2 50//2 51//2
f 37//11 36//11 44//11 45//11
f 55//5 54//5 62//5 63//5
f 45//12 44//12 52//12 53//12
f 47//5 46//5 54//5 55//5
f 41//13 48//13 56//13 49//13
f 57//14 64//14 72//14 65//14
f 49//15 56//15 64//15 57//15
f 59//2 58//2 66//2 67//2
f 53//16 52//16 60//16 61//16
f 75//2 74//2 82//2 83//2
f 67//2 66//2 74//2 75//2
f 61//17 60//17 68//17 69//17
f 63//5 62//5 70//5 71//5
f 79//5 78//5 86//5 87//5
f 69//18 68//18 76//18 77//18
f 71//5 70//5 78//5 79//5
f 65//19 72//19 80//19 73//19
f 91//2 90//2 98//2 99//2
f 73//3 80//3 88//3 81//3
f 83//2 82//2 90//2 91//2
f 77//20 76//20 84//20 85//20
f 93//21 92//21 100//21 101//21
f 85//22 84//22 92//22 93//22
f 87//5 86//5 94//5 95//5
f 81//23 88//23 96//23 89//23
f 103//5 102//5 110//5 111//5
f 95//5 94//5 102//5 103//5
f 89//24 96//24 104//24 97//24
f 99//2 98//2 106//2 107//2
f 115//2 114//2 122//2 123//2
f 97//25 104//25 112//25 105//25
f 107//2 106//2 114//2 115//2
f 101//26 100//26 108//26 109//26
f 119//5 118//5 126//5 127//5
f 109//27 108//27 116//27 117//27
f 111//5 110//5 118//5 119//5
f 105//28 112//28 120//28 113//28
f 127//5 126//5 134//5 135//5
f 113//29 120//29 128//29 121//29
f 123//2 122//2 130//2 131//2
f 117//30 116//30 124//30 125//30
f 142//2 141//2 137//2 139//2 151//2 150//2 152//2 154//2
f 121//31 128//31 136//31 129//31
f 131//2 130//2 137//2 141//2
f 125//32 124//32 132//32 133//32
f 148//5 147//5 143//5 145//5 160//5 159//5 155//5 157//5
f 133//33 132//33 140//33 144//33
f 135//5 134//5 143//5 147//5
f 129//34 136//34 146//34 138//34
f 149//4 156//4 173//4 170//4
f 139//4 138//4 146//4 148//4 157//4 156//4 149//4 151//4
f 152//4 150//4 169//4 172//4
f 145//1 144//1 140//1 142//1 154//1 153//1 158//1 160//1
f 169//3 170//3 173//3 174//3 175//3 176//3 171//3 172//3
f 7//5 9//5 21//5 20//5 22//5 24//5 12//5 11//5
f 162//3 164//3 167//3 168//3 165//3 166//3
f 4//4 6//4 18//4 17//4 19//4 21//4 9//4 8//4
f 158//4 153//4 171//4 176//4
f 1//4 5//4 163//4 161//4
f 155//4 159//4 175//4 174//4
f 1//4 2//4 3//4
f 4//4 5//4 6//4
f 7//4 8//4 9//4
f 10//4 11//4 12//4
f 13//35 14//35 15//35
f 16//36 17//36 18//36
f 19//37 20//37 21//37
f 22//38 23//38 24//38
f 137//36 138//36 139//36
f 140//35 141//35 142//35
f 143//38 144//38 145//38
f 146//37 147//37 148//37
f 149//4 150//4 151//4
f 152//4 153//4 154//4
f 155//4 156//4 157//4
f 158//4 159//4 160//4
f 19//39 29//39 30//39 20//39
f 32//40 23//40 22//40 31//40
f 26//41 14//41 13//41 25//41
f 16//42 27//42 28//42 17//42
f 27//43 35//43 36//43 28//43
f 38//44 30//44 29//44 37//44
f 25//45 33//45 34//45 26//45
f 40//46 32//46 31//46 39//46
f 35//47 43//47 44//47 36//47
f 46//48 38//48 37//48 45//48
f 33//49 41//49 42//49 34//49
f 48//50 40//50 39//50 47//50
f 45//51 53//51 54//51 46//51
f 56//52 48//52 47//52 55//52
f 50//53 42//53 41//53 49//53
f 43//54 51//54 52//54 44//54
f 51//55 59//55 60//55 52//55
f 62//56 54//56 53//56 61//56
f 49//57 57//57 58//57 50//57
f 64//58 56//58 55//58 63//58
f 57//59 65//59 66//59 58//59
f 68//60 60//60 59//60 67//60
f 61//61 69//61 70//61 62//61
f 72//62 64//62 63//62 71//62
f 69//63 77//63 78//63 70//63
f 80//64 72//64 71//64 79//64
f 74//65 66//65 65//65 73//65
f 67//66 75//66 76//66 68//66
f 75//67 83//67 84//67 76//67
f 86//68 78//68 77//68 85//68
f 73//69 81//69 82//69 74//69
f 88//70 80//70 79//70 87//70
f 85//71 93//71 94//71 86//71
f 96//72 88//72 87//72 95//72
f 90//73 82//73 81//73 89//73
f 83//74 91//74 92//74 84//74
f 95//75 103//75 104//75 96//75
f 98//76 90//76 89//76 97//76
f 91//77 99//77 100//77 92//77
f 102//78 94//78 93//78 101//78
f 99//79 107//79 108//79 100//79
f 110//80 102//80 101//80 109//80
f 97//81 105//81 106//81 98//81
f 112//82 104//82 103//82 111//82
f 109//83 117//83 118//83 110//83
f 120//84 112//84 111//84 119//84
f 114//85 106//85 105//85 113//85
f 107//86 115//86 116//86 108//86
f 115//87 123//87 124//87 116//87
f 126//88 118//88 117//88 125//88
f 113//89 121//89 122//89 114//89
f 128//90 120//90 119//90 127//90
f 123//91 131//91 132//91 124//91
f 134//92 126//92 125//92 133//92
f 121//93 129//93 130//93 122//93
f 136//94 128//94 127//94 135//94
f 133//95 144//95 143//95 134//95
f 146//96 136//96 135//96 147//96
f 137//97 130//97 129//97 138//97
f 131//98 141//98 140//98 132//98
f 161//3 163//3 164//3 162//3
f 149//4 170//4 169//4 150//4
f 171//4 153//4 152//4 172//4
f 4//4 164//4 163//4 5//4
f 162//4 2//4 1//4 161//4
f 10//4 166//4 165//4 11//4
f 167//4 8//4 7//4 168//4
f 158//4 176//4 175//4 159//4
f 173//4 156//4 155//4 174//4
f 1//2 3//2 15//2 14//2 16//2 18//2 6//2 5//2
