# Blender v2.80 (sub 18) OBJ File: ''
# www.blender.org
mtllib cube_test_box.mtl
o Cube
v 0.840597 -0.295940 -0.327821
v 0.761405 -1.000000 -0.761405
v 0.327821 -0.295940 -0.840597
v 0.840597 -0.295940 0.327821
v 0.327821 -0.295940 0.840597
v 0.761405 -1.000000 0.761405
v -0.327821 -0.295940 0.840597
v -0.840597 -0.295940 0.327821
v -0.761405 -1.000000 0.761405
v -0.327821 -0.295940 -0.840598
v -0.761405 -1.000000 -0.761406
v -0.840597 -0.295940 -0.327821
v 0.327821 0.359701 -0.840597
v 0.327821 0.872478 -0.327821
v 0.840598 0.359701 -0.327821
v 0.327821 0.359701 0.840598
v 0.840597 0.359701 0.327821
v 0.327821 0.872478 0.327821
v -0.840598 0.359701 0.327821
v -0.327821 0.359701 0.840597
v -0.327821 0.872478 0.327821
v -0.840597 0.359701 -0.327821
v -0.327821 0.872478 -0.327821
v -0.327821 0.359701 -0.840597
v 1.000000 -0.761405 -0.761405
v 1.000000 -0.761405 0.761405
v -0.761405 -0.761405 -1.000000
v 0.761405 -0.761405 -1.000000
v 0.761406 0.761405 -1.000000
v 1.000000 0.761405 -0.761405
v 0.761405 -0.761405 1.000000
v -0.761405 -0.761405 1.000000
v 1.000000 0.761405 0.761406
v 0.761405 0.761405 1.000000
v -1.000000 -0.761405 0.761405
v -1.000000 -0.761405 -0.761406
v -0.761406 0.761405 1.000000
v -1.000000 0.761405 0.761405
v -1.000000 0.761405 -0.761405
v -0.761405 0.761405 -1.000000
v 0.761406 1.000000 -0.761405
v 0.761405 1.000000 0.761406
v -0.761405 1.000000 -0.761405
v -0.761406 1.000000 0.761405
vt 0.663911 0.636372
vt 0.663911 0.308552
vt 0.336090 0.308552
vt 0.336090 0.636372
vt 0.880703 0.880703
vt 0.880703 0.119297
vt 0.119297 0.119297
vt 0.119298 0.880703
vt 0.336090 0.308552
vt 0.336090 0.636372
vt 0.663911 0.636372
vt 0.663911 0.308552
vt 0.663911 0.663910
vt 0.336090 0.663910
vt 0.336089 0.336090
vt 0.663910 0.336089
vt 0.663910 0.308552
vt 0.663910 0.636372
vt 0.336089 0.636372
vt 0.336089 0.308552
vt 0.880703 0.075819
vt 0.880703 -0.043478
vt 1.000000 0.075819
vt 1.000000 0.119297
vt 0.880703 -0.000000
vt 0.119297 0.000000
vt -0.000000 0.119297
vt 0.119298 1.000000
vt 0.000000 0.880703
vt 0.880703 1.000000
vt 0.880703 0.880702
vt 1.000000 0.880702
vt 0.880702 0.837224
vt 1.000000 0.837224
vt 0.880702 0.956522
vt 0.119298 0.837224
vt 0.000000 0.837224
vt 0.119298 0.956522
vt 0.000000 0.837224
vt 0.119297 0.956522
vt 0.119297 0.837224
vt 0.119297 0.075819
vt 0.119297 -0.043478
vt 0.880703 1.000000
vt 1.000000 0.837224
vt 0.880702 0.837224
vt 1.000000 0.075819
vt 0.880703 0.075819
vt 0.000000 0.075819
vt 0.119297 0.075819
vt 0.000000 0.075819
vt 0.119298 0.075819
vt 0.880702 0.119297
vt 1.000000 0.119297
vt 0.119297 1.000000
vt 0.119297 0.880703
vt 0.119297 0.837224
vt 0.119297 0.119298
vt 0.000000 0.880703
vt -0.000000 0.119298
vt 0.663910 0.308552
vt 0.663910 0.636372
vt 0.336089 0.636372
vt 0.336089 0.308552
vt 0.880703 0.075819
vt 0.880703 0.837224
vt 0.119297 0.075819
vt 0.119297 0.837224
vt 0.880703 0.075819
vt 0.880703 0.837224
vn 0.0000 0.0000 -1.0000
vn 0.0000 -1.0000 -0.0000
vn -1.0000 -0.0000 -0.0000
vn 0.0000 1.0000 -0.0000
vn -0.0000 -0.0000 1.0000
vn 0.5774 -0.5774 -0.5774
vn 0.5774 -0.5774 0.5773
vn -0.5774 -0.5774 0.5773
vn -0.5774 -0.5774 -0.5774
vn 0.5774 0.5774 -0.5774
vn 0.5773 0.5774 0.5774
vn -0.5774 0.5774 0.5774
vn -0.5774 0.5774 -0.5774
vn 0.7071 -0.7071 0.0000
vn 0.0000 -0.7071 -0.7071
vn 0.7071 0.0000 -0.7071
vn -0.0000 -0.7071 0.7071
vn 0.7071 0.0000 0.7071
vn -0.7071 -0.7071 -0.0000
vn -0.7071 -0.0000 0.7071
vn -0.7071 0.0000 -0.7071
vn 0.7071 0.7071 0.0000
vn 0.0000 0.7071 -0.7071
vn -0.0000 0.7071 0.7071
vn -0.7071 0.7071 -0.0000
vn 1.0000 0.0000 0.0000
vn 0.9461 0.3240 -0.0000
vn 0.0000 0.3240 -0.9461
vn -0.3451 0.0000 -0.9386
vn 0.9386 -0.0000 0.3451
vn -0.0000 0.3240 0.9461
vn 0.9386 0.0000 -0.3451
vn -0.3451 -0.0000 0.9386
vn -0.9461 0.3240 -0.0000
vn 0.3451 0.0000 0.9386
vn -0.9386 -0.0000 -0.3451
vn -0.9386 -0.0000 0.3451
vn 0.3451 0.0000 -0.9386
vn -0.2822 0.9594 -0.0000
vn 0.9295 -0.3688 0.0000
vn 0.0000 -0.3688 -0.9295
vn -0.0000 0.9594 0.2822
vn 0.0000 0.9594 -0.2822
vn -0.0000 -0.3688 0.9295
vn 0.2822 0.9594 0.0000
vn -0.9295 -0.3688 -0.0000
usemtl Material
s off
f 13/1/1 3/2/1 10/3/1 24/4/1
f 2/5/2 6/6/2 9/7/2 11/8/2
f 8/9/3 19/10/3 22/11/3 12/12/3
f 14/13/4 23/14/4 21/15/4 18/16/4
f 5/17/5 16/18/5 20/19/5 7/20/5
f 25/21/6 2/22/6 28/23/6
f 26/24/7 31/25/7 6/6/7
f 32/26/8 35/27/8 9/7/8
f 27/28/9 11/8/9 36/29/9
f 29/30/10 41/31/10 30/32/10
f 34/33/11 33/34/11 42/35/11
f 38/36/12 37/37/12 44/38/12
f 39/39/13 43/40/13 40/41/13
f 25/21/14 26/42/14 6/43/14 2/22/14
f 2/5/15 11/8/15 27/28/15 28/44/15
f 28/23/16 29/45/16 30/46/16 25/21/16
f 31/25/17 32/26/17 9/7/17 6/6/17
f 26/47/18 33/34/18 34/33/18 31/48/18
f 35/27/19 36/29/19 11/8/19 9/7/19
f 32/49/20 37/37/20 38/36/20 35/50/20
f 36/51/21 39/39/21 40/41/21 27/52/21
f 41/31/22 42/53/22 33/54/22 30/32/22
f 29/30/23 40/55/23 43/56/23 41/31/23
f 42/35/24 44/38/24 37/57/24 34/33/24
f 44/58/25 43/56/25 39/59/25 38/60/25
f 1/61/26 15/62/26 17/63/26 4/64/26
f 1/61/27 4/64/27 26/42/27 25/21/27
f 10/3/28 3/2/28 28/65/28 27/52/28
f 3/2/29 13/1/29 29/66/29 28/65/29
f 15/62/30 1/61/30 25/21/30 30/46/30
f 5/17/31 7/20/31 32/67/31 31/48/31
f 4/64/32 17/63/32 33/68/32 26/42/32
f 16/18/33 5/17/33 31/48/33 34/33/33
f 8/9/34 12/12/34 36/69/34 35/50/34
f 7/20/35 20/19/35 37/57/35 32/67/35
f 19/10/36 8/9/36 35/50/36 38/36/36
f 12/12/37 22/11/37 39/70/37 36/69/37
f 24/4/38 10/3/38 27/52/38 40/41/38
f 14/13/39 18/16/39 42/53/39 41/31/39
f 17/63/40 15/62/40 30/46/40 33/68/40
f 13/1/41 24/4/41 40/41/41 29/66/41
f 23/14/42 14/13/42 41/31/42 43/56/42
f 18/16/43 21/15/43 44/58/43 42/53/43
f 20/19/44 16/18/44 34/33/44 37/57/44
f 21/15/45 23/14/45 43/56/45 44/58/45
f 22/11/46 19/10/46 38/36/46 39/70/46
