# Blender v2.79 (sub 6) OBJ File: 'stangen.blend'
# www.blender.org
mtllib stangen.mtl
o BezierCurve_BezierCurve.001
v 0.072811 3.052901 -0.499999
v 0.072811 3.048594 -0.421214
v 0.090000 2.996027 -0.427141
v 0.090000 3.000000 -0.500000
v 0.027811 3.085595 -0.499999
v 0.027811 3.081083 -0.417551
v -0.027812 3.085595 -0.499999
v -0.027812 3.081083 -0.417551
v -0.072812 3.052901 -0.499999
v -0.072812 3.048594 -0.421214
v -0.090000 3.000000 -0.500000
v -0.090000 2.996027 -0.427141
v -0.072812 2.947099 -0.500000
v -0.072812 2.943459 -0.433068
v -0.027812 2.914405 -0.500000
v -0.027812 2.910971 -0.436731
v 0.027811 2.914405 -0.500000
v 0.027811 2.910971 -0.436731
v 0.072811 2.947099 -0.500000
v 0.072811 2.943460 -0.433068
v 0.072811 3.035772 -0.346628
v 0.090000 2.984290 -0.358796
v 0.027811 3.067590 -0.339108
v -0.027812 3.067590 -0.339108
v -0.072812 3.035772 -0.346628
v -0.090000 2.984290 -0.358796
v -0.072812 2.932807 -0.370964
v -0.027812 2.900990 -0.378484
v 0.027811 2.900990 -0.378484
v 0.072811 2.932808 -0.370964
v 0.072811 3.014570 -0.276674
v 0.090000 2.965062 -0.295312
v 0.027811 3.045168 -0.265154
v -0.027812 3.045168 -0.265154
v -0.072812 3.014570 -0.276674
v -0.090000 2.965062 -0.295312
v -0.072812 2.915553 -0.313951
v -0.027812 2.884955 -0.325470
v 0.027811 2.884955 -0.325470
v 0.072811 2.915553 -0.313951
v 0.072811 2.985160 -0.211894
v 0.090000 2.938616 -0.237037
v 0.027811 3.013925 -0.196354
v -0.027812 3.013925 -0.196354
v -0.072812 2.985160 -0.211894
v -0.090000 2.938616 -0.237037
v -0.072812 2.892073 -0.262180
v -0.027812 2.863307 -0.277720
v 0.027811 2.863307 -0.277720
v 0.072811 2.892073 -0.262180
v 0.072811 2.947778 -0.152887
v 0.090000 2.905226 -0.184317
v 0.027811 2.974076 -0.133462
v -0.027812 2.974076 -0.133462
v -0.072812 2.947778 -0.152887
v -0.090000 2.905226 -0.184317
v -0.072812 2.862675 -0.215747
v -0.027812 2.836376 -0.235172
v 0.027811 2.836376 -0.235172
v 0.072811 2.862675 -0.215747
v 0.072811 2.902758 -0.100281
v 0.090000 2.865165 -0.137500
v 0.027811 2.925992 -0.077278
v -0.027812 2.925992 -0.077278
v -0.072812 2.902758 -0.100281
v -0.090000 2.865165 -0.137500
v -0.072812 2.827572 -0.174719
v -0.027812 2.804338 -0.197721
v 0.027811 2.804338 -0.197721
v 0.072811 2.827572 -0.174719
v 0.072811 2.850538 -0.054682
v 0.090000 2.818706 -0.096933
v 0.027811 2.870212 -0.028569
v -0.027812 2.870212 -0.028569
v -0.072812 2.850538 -0.054682
v -0.090000 2.818706 -0.096933
v -0.072812 2.786873 -0.139184
v -0.027812 2.767200 -0.165297
v 0.027811 2.767200 -0.165297
v 0.072811 2.786873 -0.139184
v 0.072811 2.791640 -0.016624
v 0.090000 2.766121 -0.062963
v 0.027811 2.807411 0.012015
v -0.027812 2.807411 0.012015
v -0.072812 2.791640 -0.016624
v -0.090000 2.766121 -0.062963
v -0.072812 2.740603 -0.109302
v -0.027812 2.724832 -0.137941
v 0.027811 2.724832 -0.137941
v 0.072811 2.740603 -0.109302
v 0.072811 2.726623 0.013457
v 0.090000 2.707685 -0.035937
v 0.027811 2.738327 0.043985
v -0.027812 2.738327 0.043985
v -0.072812 2.726623 0.013457
v -0.090000 2.707685 -0.035937
v -0.072812 2.688748 -0.085332
v -0.027812 2.677044 -0.115860
v 0.027811 2.677044 -0.115860
v 0.072811 2.688748 -0.085332
v 0.072811 2.656034 0.035232
v 0.090000 2.643671 -0.016204
v 0.027811 2.663675 0.067021
v -0.027812 2.663675 0.067021
v -0.072812 2.656034 0.035232
v -0.090000 2.643671 -0.016204
v -0.072812 2.631308 -0.067639
v -0.027812 2.623667 -0.099428
v 0.027811 2.623667 -0.099428
v 0.072811 2.631308 -0.067639
v 0.072811 2.580368 0.048449
v 0.090000 2.574352 -0.004109
v 0.027811 2.584086 0.080931
v -0.027812 2.584086 0.080931
v -0.072812 2.580368 0.048449
v -0.090000 2.574352 -0.004109
v -0.072812 2.568336 -0.056666
v -0.027812 2.564617 -0.089149
v 0.027811 2.564617 -0.089149
v 0.072811 2.568336 -0.056666
v 0.072811 2.501460 0.052881
v 0.090000 2.500000 0.000000
v 0.027811 2.502362 0.085562
v -0.027812 2.502362 0.085562
v -0.072812 2.501460 0.052881
v -0.090000 2.500000 0.000000
v -0.072812 2.498540 -0.052881
v -0.027812 2.497638 -0.085562
v 0.027811 2.497638 -0.085562
v 0.072811 2.498540 -0.052881
v 0.072811 -0.000258 0.052901
v 0.090000 -0.000258 0.000000
v 0.027811 -0.000258 0.085595
v -0.027812 -0.000258 0.085595
v -0.072812 -0.000258 0.052901
v -0.090000 -0.000258 0.000000
v -0.072812 -0.000258 -0.052901
v -0.027812 -0.000258 -0.085595
v 0.027811 -0.000258 -0.085595
v 0.072811 -0.000258 -0.052901
vn 0.8035 0.5944 0.0325
vn 0.8036 0.5914 0.0668
vn 0.9999 0.0113 0.0013
vn 0.9999 0.0107 0.0006
vn 0.3055 0.9508 0.0520
vn 0.3057 0.9461 0.1069
vn -0.3055 0.9508 0.0520
vn -0.3057 0.9461 0.1069
vn -0.8035 0.5944 0.0325
vn -0.8036 0.5914 0.0668
vn -0.9999 0.0107 0.0006
vn -0.9999 0.0113 0.0013
vn -0.8137 -0.5804 -0.0316
vn -0.8144 -0.5766 -0.0649
vn -0.3118 -0.9488 -0.0515
vn -0.3124 -0.9440 -0.1062
vn 0.3118 -0.9488 -0.0515
vn 0.3124 -0.9440 -0.1062
vn 0.8137 -0.5805 -0.0316
vn 0.8144 -0.5766 -0.0649
vn 0.8032 0.5797 0.1371
vn 0.9999 0.0119 0.0028
vn 0.3055 0.9266 0.2192
vn -0.3055 0.9266 0.2192
vn -0.8032 0.5797 0.1371
vn -0.9999 0.0119 0.0028
vn -0.8148 -0.5642 -0.1332
vn -0.3127 -0.9245 -0.2182
vn 0.3127 -0.9245 -0.2182
vn 0.8148 -0.5642 -0.1332
vn 0.8029 0.5579 0.2101
vn 0.9999 0.0121 0.0046
vn 0.3053 0.8911 0.3357
vn -0.3053 0.8911 0.3357
vn -0.8029 0.5579 0.2101
vn -0.9999 0.0121 0.0046
vn -0.8152 -0.5421 -0.2039
vn -0.3129 -0.8890 -0.3343
vn 0.3129 -0.8890 -0.3343
vn 0.8152 -0.5421 -0.2039
vn 0.8026 0.5248 0.2836
vn 0.9999 0.0120 0.0065
vn 0.3051 0.8378 0.4528
vn -0.3051 0.8378 0.4528
vn -0.8026 0.5248 0.2836
vn -0.9999 0.0120 0.0065
vn -0.8155 -0.5092 -0.2750
vn -0.3131 -0.8357 -0.4511
vn 0.3131 -0.8357 -0.4511
vn 0.8155 -0.5092 -0.2750
vn 0.8024 0.4800 0.3547
vn 0.9999 0.0113 0.0084
vn 0.3050 0.7660 0.5659
vn -0.3050 0.7660 0.5659
vn -0.8024 0.4800 0.3546
vn -0.9999 0.0113 0.0084
vn -0.8158 -0.4653 -0.3436
vn -0.3132 -0.7640 -0.5641
vn 0.3132 -0.7640 -0.5641
vn 0.8158 -0.4653 -0.3436
vn 0.8023 0.4242 0.4200
vn 0.9999 0.0101 0.0100
vn 0.3049 0.6768 0.6701
vn -0.3049 0.6768 0.6701
vn -0.8023 0.4242 0.4200
vn -0.9999 0.0101 0.0100
vn -0.8158 -0.4109 -0.4068
vn -0.3133 -0.6749 -0.6681
vn 0.3133 -0.6749 -0.6681
vn 0.8158 -0.4109 -0.4068
vn 0.8023 0.3592 0.4767
vn 0.9999 0.0085 0.0113
vn 0.3049 0.5731 0.7606
vn -0.3049 0.5731 0.7606
vn -0.8023 0.3592 0.4767
vn -0.9999 0.0085 0.0113
vn -0.8158 -0.3480 -0.4619
vn -0.3133 -0.5714 -0.7586
vn 0.3133 -0.5714 -0.7586
vn 0.8158 -0.3480 -0.4619
vn 0.8025 0.2879 0.5226
vn 0.9999 0.0067 0.0121
vn 0.3050 0.4595 0.8341
vn -0.3050 0.4595 0.8341
vn -0.8025 0.2879 0.5226
vn -0.9999 0.0067 0.0121
vn -0.8156 -0.2790 -0.5069
vn -0.3132 -0.4579 -0.8320
vn 0.3132 -0.4579 -0.8320
vn 0.8156 -0.2790 -0.5069
vn 0.8028 0.2136 0.5567
vn 0.9999 0.0048 0.0123
vn 0.3052 0.3411 0.8891
vn -0.3052 0.3411 0.8891
vn -0.8028 0.2136 0.5567
vn -0.9999 0.0048 0.0123
vn -0.8153 -0.2072 -0.5407
vn -0.3130 -0.3397 -0.8869
vn 0.3130 -0.3397 -0.8869
vn 0.8153 -0.2072 -0.5407
vn 0.8031 0.1394 0.5793
vn 0.9999 0.0029 0.0121
vn 0.3054 0.2228 0.9258
vn -0.3054 0.2228 0.9258
vn -0.8031 0.1394 0.5793
vn -0.9999 0.0029 0.0121
vn -0.8149 -0.1353 -0.5635
vn -0.3127 -0.2217 -0.9236
vn 0.3127 -0.2217 -0.9236
vn 0.8149 -0.1353 -0.5635
vn 0.8036 0.0680 0.5912
vn 0.9999 0.0014 0.0115
vn 0.3058 0.1090 0.9458
vn -0.3058 0.1090 0.9458
vn -0.8036 0.0680 0.5912
vn -0.9999 0.0014 0.0115
vn -0.8146 -0.0656 -0.5763
vn -0.3126 -0.1071 -0.9438
vn 0.3126 -0.1071 -0.9438
vn 0.8146 -0.0656 -0.5763
vn 0.8063 0.0166 0.5912
vn 1.0000 0.0002 0.0054
vn 0.3073 0.0269 0.9512
vn -0.3073 0.0269 0.9512
vn -0.8063 0.0166 0.5912
vn -1.0000 0.0002 0.0054
vn -0.8115 -0.0158 -0.5841
vn -0.3105 -0.0255 -0.9502
vn 0.3105 -0.0255 -0.9502
vn 0.8115 -0.0158 -0.5841
vn 0.8090 0.0000 0.5879
vn 1.0000 0.0000 0.0000
vn 0.3090 0.0000 0.9511
vn -0.3090 0.0000 0.9511
vn -0.8090 0.0000 0.5878
vn -1.0000 0.0000 0.0000
vn -0.8090 0.0000 -0.5878
vn -0.3090 0.0000 -0.9511
vn 0.3090 0.0000 -0.9511
vn 0.8090 0.0000 -0.5879
usemtl None
s 1
f 1//1 2//2 3//3 4//4
f 5//5 6//6 2//2 1//1
f 7//7 8//8 6//6 5//5
f 9//9 10//10 8//8 7//7
f 11//11 12//12 10//10 9//9
f 13//13 14//14 12//12 11//11
f 15//15 16//16 14//14 13//13
f 17//17 18//18 16//16 15//15
f 19//19 20//20 18//18 17//17
f 4//4 3//3 20//20 19//19
f 2//2 21//21 22//22 3//3
f 6//6 23//23 21//21 2//2
f 8//8 24//24 23//23 6//6
f 10//10 25//25 24//24 8//8
f 12//12 26//26 25//25 10//10
f 14//14 27//27 26//26 12//12
f 16//16 28//28 27//27 14//14
f 18//18 29//29 28//28 16//16
f 20//20 30//30 29//29 18//18
f 3//3 22//22 30//30 20//20
f 21//21 31//31 32//32 22//22
f 23//23 33//33 31//31 21//21
f 24//24 34//34 33//33 23//23
f 25//25 35//35 34//34 24//24
f 26//26 36//36 35//35 25//25
f 27//27 37//37 36//36 26//26
f 28//28 38//38 37//37 27//27
f 29//29 39//39 38//38 28//28
f 30//30 40//40 39//39 29//29
f 22//22 32//32 40//40 30//30
f 31//31 41//41 42//42 32//32
f 33//33 43//43 41//41 31//31
f 34//34 44//44 43//43 33//33
f 35//35 45//45 44//44 34//34
f 36//36 46//46 45//45 35//35
f 37//37 47//47 46//46 36//36
f 38//38 48//48 47//47 37//37
f 39//39 49//49 48//48 38//38
f 40//40 50//50 49//49 39//39
f 32//32 42//42 50//50 40//40
f 41//41 51//51 52//52 42//42
f 43//43 53//53 51//51 41//41
f 44//44 54//54 53//53 43//43
f 45//45 55//55 54//54 44//44
f 46//46 56//56 55//55 45//45
f 47//47 57//57 56//56 46//46
f 48//48 58//58 57//57 47//47
f 49//49 59//59 58//58 48//48
f 50//50 60//60 59//59 49//49
f 42//42 52//52 60//60 50//50
f 51//51 61//61 62//62 52//52
f 53//53 63//63 61//61 51//51
f 54//54 64//64 63//63 53//53
f 55//55 65//65 64//64 54//54
f 56//56 66//66 65//65 55//55
f 57//57 67//67 66//66 56//56
f 58//58 68//68 67//67 57//57
f 59//59 69//69 68//68 58//58
f 60//60 70//70 69//69 59//59
f 52//52 62//62 70//70 60//60
f 61//61 71//71 72//72 62//62
f 63//63 73//73 71//71 61//61
f 64//64 74//74 73//73 63//63
f 65//65 75//75 74//74 64//64
f 66//66 76//76 75//75 65//65
f 67//67 77//77 76//76 66//66
f 68//68 78//78 77//77 67//67
f 69//69 79//79 78//78 68//68
f 70//70 80//80 79//79 69//69
f 62//62 72//72 80//80 70//70
f 71//71 81//81 82//82 72//72
f 73//73 83//83 81//81 71//71
f 74//74 84//84 83//83 73//73
f 75//75 85//85 84//84 74//74
f 76//76 86//86 85//85 75//75
f 77//77 87//87 86//86 76//76
f 78//78 88//88 87//87 77//77
f 79//79 89//89 88//88 78//78
f 80//80 90//90 89//89 79//79
f 72//72 82//82 90//90 80//80
f 81//81 91//91 92//92 82//82
f 83//83 93//93 91//91 81//81
f 84//84 94//94 93//93 83//83
f 85//85 95//95 94//94 84//84
f 86//86 96//96 95//95 85//85
f 87//87 97//97 96//96 86//86
f 88//88 98//98 97//97 87//87
f 89//89 99//99 98//98 88//88
f 90//90 100//100 99//99 89//89
f 82//82 92//92 100//100 90//90
f 91//91 101//101 102//102 92//92
f 93//93 103//103 101//101 91//91
f 94//94 104//104 103//103 93//93
f 95//95 105//105 104//104 94//94
f 96//96 106//106 105//105 95//95
f 97//97 107//107 106//106 96//96
f 98//98 108//108 107//107 97//97
f 99//99 109//109 108//108 98//98
f 100//100 110//110 109//109 99//99
f 92//92 102//102 110//110 100//100
f 101//101 111//111 112//112 102//102
f 103//103 113//113 111//111 101//101
f 104//104 114//114 113//113 103//103
f 105//105 115//115 114//114 104//104
f 106//106 116//116 115//115 105//105
f 107//107 117//117 116//116 106//106
f 108//108 118//118 117//117 107//107
f 109//109 119//119 118//118 108//108
f 110//110 120//120 119//119 109//109
f 102//102 112//112 120//120 110//110
f 111//111 121//121 122//122 112//112
f 113//113 123//123 121//121 111//111
f 114//114 124//124 123//123 113//113
f 115//115 125//125 124//124 114//114
f 116//116 126//126 125//125 115//115
f 117//117 127//127 126//126 116//116
f 118//118 128//128 127//127 117//117
f 119//119 129//129 128//128 118//118
f 120//120 130//130 129//129 119//119
f 112//112 122//122 130//130 120//120
f 121//121 131//131 132//132 122//122
f 123//123 133//133 131//131 121//121
f 124//124 134//134 133//133 123//123
f 125//125 135//135 134//134 124//124
f 126//126 136//136 135//135 125//125
f 127//127 137//137 136//136 126//126
f 128//128 138//138 137//137 127//127
f 129//129 139//139 138//138 128//128
f 130//130 140//140 139//139 129//129
f 122//122 132//132 140//140 130//130
