# Blender v2.80 (sub 18) OBJ File: 'cube_test_bogen.blend'
# www.blender.org
o Cube
v 1.000000 -1.000000 -1.000000
v 1.000000 -1.000000 1.000000
v -1.000000 -1.000000 1.000000
v -1.000000 -1.000000 -1.000000
v 1.000000 0.040441 -0.999999
v 0.999999 0.040441 1.000001
v -1.000000 0.040441 1.000000
v -1.000000 0.040441 -1.000000
v 1.000000 0.279757 -1.029058
v 0.999999 0.758388 0.912826
v -1.000000 0.758388 0.912825
v -1.000000 0.279757 -1.029058
v 1.000000 0.505164 -1.114543
v 0.999999 1.434611 0.656369
v -1.000000 1.434610 0.656368
v -1.000000 0.505164 -1.114544
v 1.000000 0.703564 -1.251489
v 0.999999 2.029809 0.245533
v -1.000000 2.029809 0.245532
v -1.000000 0.703564 -1.251489
v 1.000000 0.863425 -1.431935
v 0.999999 2.509393 -0.295805
v -1.000000 2.509393 -0.295806
v -1.000000 0.863425 -1.431935
v 1.000000 0.975458 -1.645395
v 0.999999 2.845491 -0.936185
v -1.000000 2.845490 -0.936186
v -1.000000 0.975457 -1.645395
v 1.000000 1.033150 -1.879463
v 0.999999 3.018569 -1.638390
v -1.000000 3.018568 -1.638390
v -1.000000 1.033150 -1.879463
v 1.000000 1.033150 -2.120537
v 0.999999 3.018569 -2.361610
v -1.000000 3.018568 -2.361610
v -1.000000 1.033149 -2.120537
v 1.000000 0.975457 -2.354605
v 0.999999 2.845490 -3.063815
v -1.000000 2.845490 -3.063815
v -1.000000 0.975457 -2.354605
v 1.000000 0.863425 -2.568065
v 0.999999 2.509393 -3.704195
v -1.000000 2.509393 -3.704195
v -1.000000 0.863424 -2.568065
v 1.000000 0.703563 -2.748511
v 0.999999 2.029809 -4.245533
v -1.000000 2.029809 -4.245533
v -1.000000 0.703563 -2.748511
v 1.000000 0.505164 -2.885457
v 0.999999 1.434611 -4.656369
v -1.000000 1.434610 -4.656369
v -1.000000 0.505164 -2.885456
v 1.000000 0.279756 -2.970942
v 0.999999 0.758388 -4.912827
v -1.000000 0.758388 -4.912827
v -1.000000 0.279756 -2.970942
v 1.000000 0.040440 -3.000000
v 0.999999 0.040441 -5.000001
v -1.000000 0.040440 -5.000001
v -1.000000 0.040440 -3.000000
v 1.000001 -1.000001 -3.000000
v 1.000000 -1.000000 -5.000001
v -1.000000 -1.000001 -3.000000
v -1.000000 -1.000001 -5.000001
vn 0.0000 -1.0000 0.0000
vn -1.0000 -0.0000 -0.0000
vn 1.0000 0.0000 0.0000
vn -0.0000 -0.0000 1.0000
vn 0.0000 0.0000 -1.0000
vn 0.0000 -0.1205 -0.9927
vn -0.0000 0.1205 0.9927
vn -0.0000 0.5681 0.8230
vn 0.0000 -0.3546 -0.9350
vn -0.0000 0.3546 0.9350
vn 0.0000 -0.5681 -0.8230
vn 0.0000 -0.8855 -0.4647
vn 0.0000 -0.7485 -0.6631
vn -0.0000 0.7485 0.6631
vn -0.0000 0.9709 0.2393
vn -0.0000 0.8855 0.4647
vn 0.0000 -0.9709 -0.2393
vn -0.0000 0.9709 -0.2393
vn -0.0000 1.0000 0.0000
vn -0.0000 0.8855 -0.4647
vn 0.0000 -0.9709 0.2393
vn 0.0000 -0.8855 0.4647
vn -0.0000 0.5681 -0.8230
vn 0.0000 -0.7485 0.6631
vn -0.0000 0.7485 -0.6631
vn 0.0000 -0.5681 0.8230
vn 0.0000 -0.3546 0.9350
vn -0.0000 0.3546 -0.9350
vn 0.0000 -0.1205 0.9927
vn -0.0000 0.1205 -0.9927
s off
f 1//1 2//1 3//1 4//1
f 8//2 7//2 11//2 12//2
f 1//3 5//3 6//3 2//3
f 2//4 6//4 7//4 3//4
f 3//2 7//2 8//2 4//2
f 5//5 1//5 4//5 8//5
f 12//2 11//2 15//2 16//2
f 5//6 8//6 12//6 9//6
f 7//7 6//7 10//7 11//7
f 6//3 5//3 9//3 10//3
f 15//8 14//8 18//8 19//8
f 9//9 12//9 16//9 13//9
f 11//10 10//10 14//10 15//10
f 10//3 9//3 13//3 14//3
f 20//2 19//2 23//2 24//2
f 14//3 13//3 17//3 18//3
f 16//2 15//2 19//2 20//2
f 13//11 16//11 20//11 17//11
f 21//12 24//12 28//12 25//12
f 17//13 20//13 24//13 21//13
f 19//14 18//14 22//14 23//14
f 18//3 17//3 21//3 22//3
f 27//15 26//15 30//15 31//15
f 23//16 22//16 26//16 27//16
f 22//3 21//3 25//3 26//3
f 24//2 23//2 27//2 28//2
f 32//2 31//2 35//2 36//2
f 26//3 25//3 29//3 30//3
f 28//2 27//2 31//2 32//2
f 25//17 28//17 32//17 29//17
f 35//18 34//18 38//18 39//18
f 29//1 32//1 36//1 33//1
f 31//19 30//19 34//19 35//19
f 30//3 29//3 33//3 34//3
f 39//20 38//20 42//20 43//20
f 34//3 33//3 37//3 38//3
f 36//2 35//2 39//2 40//2
f 33//21 36//21 40//21 37//21
f 44//2 43//2 47//2 48//2
f 38//3 37//3 41//3 42//3
f 40//2 39//2 43//2 44//2
f 37//22 40//22 44//22 41//22
f 47//23 46//23 50//23 51//23
f 41//24 44//24 48//24 45//24
f 43//25 42//25 46//25 47//25
f 42//3 41//3 45//3 46//3
f 50//3 49//3 53//3 54//3
f 46//3 45//3 49//3 50//3
f 48//2 47//2 51//2 52//2
f 45//26 48//26 52//26 49//26
f 56//2 55//2 59//2 60//2
f 52//2 51//2 55//2 56//2
f 49//27 52//27 56//27 53//27
f 51//28 50//28 54//28 55//28
f 59//5 58//5 62//5 64//5
f 53//29 56//29 60//29 57//29
f 55//30 54//30 58//30 59//30
f 54//3 53//3 57//3 58//3
f 61//1 63//1 64//1 62//1
f 58//3 57//3 61//3 62//3
f 60//2 59//2 64//2 63//2
f 57//4 60//4 63//4 61//4
